<svg width="20" height="18" viewBox="0 0 20 18" fill="none" xmlns="http://www.w3.org/2000/svg">
<path d="M18.486 10.1238L4.23268 10.1258L9.20452 15.0977C9.4155 15.3086 9.53402 15.5948 9.53402 15.8932C9.53402 16.1915 9.4155 16.4777 9.20452 16.6887C8.99354 16.8996 8.70739 17.0182 8.40902 17.0182C8.11066 17.0182 7.82451 16.8996 7.61353 16.6887L0.719239 9.79436C0.50826 9.58338 0.389734 9.29723 0.389734 8.99886C0.389734 8.70049 0.50826 8.41435 0.719239 8.20337L7.61353 1.30908C7.82451 1.0981 8.11066 0.979572 8.40903 0.979572C8.70739 0.979572 8.99354 1.0981 9.20452 1.30908C9.4155 1.52006 9.53403 1.8062 9.53403 2.10457C9.53403 2.40294 9.4155 2.68909 9.20452 2.90007L4.23268 7.87191L18.4853 7.87324C18.6333 7.87324 18.7798 7.90239 18.9166 7.95902C19.0533 8.01566 19.1775 8.09867 19.2822 8.20331C19.3868 8.30796 19.4698 8.4322 19.5265 8.56892C19.5831 8.70565 19.6122 8.8522 19.6122 9.00019C19.6122 9.14818 19.5831 9.29473 19.5265 9.43145C19.4698 9.56818 19.3868 9.69242 19.2822 9.79706C19.1775 9.90171 19.0533 9.98472 18.9166 10.0414C18.7798 10.098 18.6333 10.1271 18.4853 10.1271L18.486 10.1238Z" fill="white"/>
</svg>
